<svg xmlns="http://www.w3.org/2000/svg" viewBox="0 0 40 40" width="50px" height="50px">
  <title>icon_BMC_24</title>
  <g id="basic" style="isolation: isolate">
    <rect  opacity="0"/>
  </g>
  <g id="Icons_for_AI" data-name="Icons for AI">
    <g id="icon_BMC" data-name="icon BMC">
      <path opacity="0.65" fill-rule="evenodd" clip-rule="evenodd" d="M2.00006 2.5C2.00006 1.11929 3.11935 0 4.50006 0H19.5001C20.8808 0 22.0001 1.11929 22.0001 2.5V13.5C22.0001 14.5129 21.3977 15.3851 20.5316 15.7779L23.2951 17.5051C23.7337 17.7792 24.0001 18.2599 24.0001 18.7771V19.5C24.0001 20.3284 23.3285 21 22.5001 21H1.5C0.671571 21 0 20.3284 0 19.5V18.7771C0 18.2599 0.266437 17.7792 0.705022 17.5051L3.46857 15.778C2.60247 15.3851 2.00006 14.5129 2.00006 13.5V2.5Z" fill="black"/>
      <path fill-rule="evenodd" clip-rule="evenodd" d="M4.50003 1C3.6716 1 3.00003 1.67157 3.00003 2.5V13.5C3.00003 14.3284 3.6716 15 4.50003 15H19.5C20.3285 15 21 14.3284 21 13.5V2.5C21 1.67157 20.3285 1 19.5 1H4.50003ZM5.00003 4C5.00003 3.44772 5.44774 3 6.00003 3H18C18.5523 3 19 3.44772 19 4V12C19 12.5523 18.5523 13 18 13H6.00003C5.44775 13 5.00003 12.5523 5.00003 12V4Z" fill="white"/>
      <path fill-rule="evenodd" clip-rule="evenodd" d="M4.87852 16.076C4.95799 16.0263 5.04981 16 5.14352 16H18.8567C18.9504 16 19.0423 16.0263 19.1217 16.076L22.7651 18.3531C22.9113 18.4445 23.0001 18.6047 23.0001 18.7771V19.5C23.0001 19.7761 22.7763 20 22.5001 20H1.5C1.22386 20 1 19.7761 1 19.5V18.7771C1 18.6047 1.08881 18.4445 1.23501 18.3531L4.87852 16.076ZM5.49997 17C5.22383 17 4.99997 17.2239 4.99997 17.5C4.99997 17.7761 5.22383 18 5.49997 18H6.49997C6.77611 18 6.99997 17.7761 6.99997 17.5C6.99997 17.2239 6.77611 17 6.49997 17H5.49997ZM7.99997 17.5C7.99997 17.2239 8.22383 17 8.49997 17H9.49997C9.77611 17 9.99997 17.2239 9.99997 17.5C9.99997 17.7761 9.77611 18 9.49997 18H8.49997C8.22383 18 7.99997 17.7761 7.99997 17.5ZM11.5 17C11.2238 17 11 17.2239 11 17.5C11 17.7761 11.2238 18 11.5 18H12.5C12.7761 18 13 17.7761 13 17.5C13 17.2239 12.7761 17 12.5 17H11.5ZM14 17.5C14 17.2239 14.2238 17 14.5 17H15.5C15.7761 17 16 17.2239 16 17.5C16 17.7761 15.7761 18 15.5 18H14.5C14.2238 18 14 17.7761 14 17.5ZM17.5 17C17.2238 17 17 17.2239 17 17.5C17 17.7761 17.2238 18 17.5 18H18.5C18.7761 18 19 17.7761 19 17.5C19 17.2239 18.7761 17 18.5 17H17.5Z" fill="white"/>
    </g>
  </g>
</svg>
