<svg xmlns="http://www.w3.org/2000/svg" viewBox="0 0 40 40" width="50px" height="50px">
  <title>icon_GDL_24</title>
  <g id="basic" style="isolation: isolate">
    <rect  opacity="0"/>
  </g>
  <g id="Icons_for_AI" data-name="Icons for AI">
    <g id="ic_GDL" data-name="ic GDL">
     <path opacity="0.65" fill-rule="evenodd" clip-rule="evenodd" d="M7.07311 22L6.48642 23.3891C6.33003 23.7593 5.96716 24 5.56522 24H4C3.66386 24 3.3502 23.8311 3.16516 23.5505C2.98012 23.2699 2.94844 22.915 3.08085 22.6061L4.81754 18.5538C1.93097 16.8013 0 13.627 0 10C0 4.47715 4.47715 0 10 0C15.5228 0 20 4.47715 20 10C20 13.627 18.069 16.8013 15.1825 18.5538L16.9191 22.6061C17.0516 22.915 17.0199 23.2699 16.8348 23.5505C16.6498 23.8311 16.3361 24 16 24H14.4348C14.0328 24 13.67 23.7593 13.5136 23.3891L12.9269 22H7.07311Z" fill="black"/>
     <path d="M4.87145 17.3968C2.53176 15.7715 1 13.0646 1 10C1 5.02944 5.02944 1 10 1C14.9706 1 19 5.02944 19 10C19 13.0646 17.4682 15.7715 15.1286 17.3968L14.6535 16.3412C16.601 14.9096 17.865 12.6024 17.865 10C17.865 5.65629 14.3437 2.13503 10 2.13503C5.65629 2.13503 2.13503 5.65629 2.13503 10C2.13503 12.6024 3.39897 14.9096 5.34646 16.3412L4.87145 17.3968Z" fill="white"/>
     <path d="M6.13481 14.5893C4.82933 13.4887 4 11.8412 4 10C4 6.68629 6.68629 4 10 4C13.3137 4 16 6.68629 16 10C16 11.8412 15.1707 13.4887 13.8652 14.5893L13.3445 13.4323C14.2377 12.5618 14.7923 11.3457 14.7923 10C14.7923 7.35327 12.6467 5.20767 10 5.20767C7.35327 5.20767 5.20767 7.35327 5.20767 10C5.20767 11.3457 5.76232 12.5618 6.65547 13.4323L6.13481 14.5893Z" fill="white"/>
     <path fill-rule="evenodd" clip-rule="evenodd" d="M5.28176 23L6.13163 21H13.8091L14.646 23H16L11.1345 11.6473C11.6574 11.2865 12 10.6833 12 10C12 8.89543 11.1046 8 10 8C8.89543 8 8 8.89543 8 10C8 10.6833 8.34263 11.2865 8.86545 11.6473L4 23H5.28176ZM10.0431 11.9995C10.0288 11.9998 10.0144 12 10 12C9.98538 12 9.9708 11.9998 9.95626 11.9995L7.83138 17H12.1354L10.0431 11.9995ZM12.5539 18H7.40644L6.55657 20H13.3907L12.5539 18Z" fill="white"/>
    </g>
  </g>
</svg>
