<svg xmlns="http://www.w3.org/2000/svg" viewBox="0 0 40 40"  width="50px" height="50px" >
  <title>icon_launcher_24</title>
  <g id="basic" style="isolation: isolate">
    <rect  opacity="0"/>
  </g>
  <g id="Icons_for_AI" data-name="Icons for AI">
    <g id="icon_Launcher" data-name="icon Launcher">
      <path opacity="0.65" fill-rule="evenodd" clip-rule="evenodd" d="M2.02637 15C1.53309 14.9963 1.05778 14.8052 0.688374 14.4619C0.318966 14.1187 0.0804589 13.6466 0.0169762 13.1331C-0.0465064 12.6195 0.0693318 12.0991 0.34306 11.6683C0.616789 11.2374 1.02988 10.9253 1.50592 10.7895C1.48151 10.5287 1.52122 10.2656 1.62128 10.0255C1.72133 9.78545 1.87837 9.57631 2.07739 9.41813L11.3332 0.847111C11.7946 0.372087 12.3949 0.0739513 13.0374 0.000722794H15.2927C15.5353 -0.00792927 15.7747 0.0612659 15.9789 0.199084C16.1831 0.336903 16.3424 0.536796 16.4356 0.772115C16.4381 0.825652 16.4381 0.879283 16.4356 0.932821L16.5683 0.804255C17.0665 0.316347 17.7143 0.0313728 18.3949 0.000722794H20.7931C21.0343 -0.00723853 21.272 0.0623785 21.4745 0.200247C21.6769 0.338116 21.8344 0.53765 21.9258 0.772115C22.0217 1.0638 22.0247 1.38026 21.9345 1.67393C21.8444 1.96759 21.6658 2.2226 21.4258 2.40061L12.4965 10.7145H18.3541C18.8954 10.7145 19.4146 10.9402 19.7973 11.3421C20.1801 11.7439 20.3951 12.289 20.3951 12.8572C20.3951 13.4255 20.1801 13.9706 19.7973 14.3724C19.4146 14.7742 18.8954 15 18.3541 15H2.02637Z" fill="black"/>
      <path fill-rule="evenodd" clip-rule="evenodd" d="M2.02641 13.7679C1.79636 13.7679 1.57573 13.672 1.41306 13.5012C1.25038 13.3304 1.159 13.0988 1.159 12.8572C1.159 12.6157 1.25038 12.3841 1.41306 12.2133C1.57573 12.0425 1.79636 11.9466 2.02641 11.9466H18.3542C18.4681 11.9466 18.5809 11.9701 18.6861 12.0159C18.7913 12.0616 18.887 12.1287 18.9675 12.2133C19.0481 12.2979 19.112 12.3982 19.1556 12.5087C19.1991 12.6192 19.2216 12.7376 19.2216 12.8572C19.2216 12.9768 19.1991 13.0952 19.1556 13.2057C19.112 13.3162 19.0481 13.4166 18.9675 13.5012C18.887 13.5857 18.7913 13.6528 18.6861 13.6986C18.5809 13.7443 18.4681 13.7679 18.3542 13.7679H2.02641ZM8.02686 10.5538C8.02686 10.5538 8.02686 10.4573 8.17993 10.2966L17.4255 1.72562C17.6956 1.46494 18.0327 1.29353 18.395 1.23279H20.7931C20.7931 1.23279 20.7931 1.33993 20.6401 1.48992L11.3945 10.0609C11.1124 10.3343 10.7552 10.5068 10.374 10.5538H8.02686ZM2.71013 10.5538C2.71013 10.5538 2.71013 10.4573 2.86321 10.2966L12.1088 1.72562C12.3788 1.46494 12.716 1.29353 13.0783 1.23279H15.3335C15.3335 1.23279 15.3335 1.33993 15.1805 1.48992L5.93487 10.0609C5.66773 10.326 5.32917 10.4982 4.96541 10.5538H2.71013Z" fill="white"/>
    </g>
  </g>
</svg>


