<svg xmlns="http://www.w3.org/2000/svg" viewBox="0 0 40 40" width="50px" height="50px" >
  <title>icon_radar_24</title>
  <g id="basic" style="isolation: isolate">
    <rect opacity="0"/>
  </g>
  <g id="Icons_for_AI" data-name="Icons for AI">
    <g id="icon_Radar" data-name="icon Radar">
      <path opacity="0.65" fill-rule="evenodd" clip-rule="evenodd" d="M14.0636 19.1395C17.5606 17.5824 20 14.0771 20 10C20 4.47715 15.5228 0 10 0C4.47715 0 0 4.47715 0 10C0 14.0771 2.43937 17.5824 5.93639 19.1395L5.11361 20.8497C4.63447 21.8455 5.36017 23 6.4653 23H13.5347C14.6398 23 15.3655 21.8455 14.8864 20.8497L14.0636 19.1395Z" fill="black"/>
      <path d="M10 19C14.9706 19 19 14.9706 19 10C19 7.56734 18.0348 5.3601 16.4666 3.74033C16.7043 3.9859 16.9283 4.24529 17.1373 4.51737L15.5515 5.73552C16.4599 6.91629 17 8.39507 17 10C17 13.866 13.866 17 10 17C6.13401 17 3 13.866 3 10C3 6.13401 6.13401 3 10 3C11.3092 3 12.5345 3.35943 13.5826 3.98501L14.6055 2.26763C15.2163 2.63144 15.7806 3.06557 16.2872 3.56015C14.6649 1.97613 12.4464 1 10 1C5.02944 1 1 5.02944 1 10C1 14.9706 5.02944 19 10 19Z" fill="white"/>
      <path d="M10 4C11.1222 4 12.1725 4.30809 13.0708 4.84429L12.0472 6.56286C11.4483 6.20539 10.7481 6 10 6C7.79086 6 6 7.79086 6 10C6 12.2091 7.79086 14 10 14C12.2091 14 14 12.2091 14 10C14 9.0829 13.6914 8.23788 13.1723 7.56315L14.7584 6.34473C15.537 7.35682 16 8.62434 16 10C16 13.3137 13.3137 16 10 16C6.68629 16 4 13.3137 4 10C4 6.68629 6.68629 4 10 4Z" fill="white"/>
      <path d="M10 7C10.5611 7 11.0862 7.15404 11.5354 7.42215L10.5118 9.14071C10.3621 9.05135 10.187 9 10 9C9.44771 9 9 9.44771 9 10C9 10.5523 9.44771 11 10 11C10.5523 11 11 10.5523 11 10C11 9.77072 10.9228 9.55947 10.7931 9.39079L12.3792 8.17236C12.7685 8.67841 13 9.31217 13 10C13 11.6569 11.6569 13 10 13C8.34315 13 7 11.6569 7 10C7 8.34315 8.34315 7 10 7Z" fill="white"/>
      <path d="M10 20C11.0924 20 12.1439 19.8249 13.1279 19.5011L13.9853 21.2832C14.145 21.6152 13.9031 22 13.5347 22H6.46534C6.09697 22 5.85507 21.6152 6.01478 21.2832L6.8722 19.5011C7.85621 19.8249 8.90767 20 10 20Z" fill="white"/>
    </g>
  </g>
</svg>
